This the final version of the A/V presentation by DJ Erb, called "Alice in Shadowland" - The concept was to make a mix of almost nothing but DJ Shadow music and samples set to the Disney animated movie "Alice in Wonderland." The result is, to say the least, a SPECTACULAR.


This is an XVID conversion of the MP4/H264 version from  
http://www.solesides.com/index.php?page=release&id=144

=====================================================================================

General
Complete name                    : C:\Any Video Converter\AVI\dj-erb_Alice-in-Shadowland_xvid.avi
Format                           : AVI
Format/Info                      : Audio Video Interleave
File size                        : 658 MiB
Duration                         : 1h 15mn
Overall bit rate                 : 1 223 Kbps
Writing application              : MEncoder Sherpya-SVN-r30075-4.2.5
Writing library                  : MPlayer

Video
ID                               : 0
Format                           : MPEG-4 Visual
Format profile                   : Simple@L3
Format settings, BVOP            : No
Format settings, QPel            : No
Format settings, GMC             : No warppoints
Format settings, Matrix          : Default (H.263)
Codec ID                         : XVID
Codec ID/Hint                    : XviD
Duration                         : 1h 15mn
Bit rate                         : 1 024 Kbps
Width                            : 720 pixels
Height                           : 480 pixels
Display aspect ratio             : 3:2
Frame rate                       : 23.976 fps
Standard                         : NTSC
Resolution                       : 8 bits
Colorimetry                      : 4:2:0
Scan type                        : Progressive
Bits/(Pixel*Frame)               : 0.124
Stream size                      : 551 MiB (84%)
Writing library                  : XviD 1.2.1 (UTC 2008-12-04)

Audio
ID                               : 1
Format                           : MPEG Audio
Format version                   : Version 1
Format profile                   : Layer 3
Format_Settings_Mode             : Joint stereo
Codec ID                         : 55
Codec ID/Hint                    : MP3
Duration                         : 1h 15mn
Bit rate mode                    : Variable
Bit rate                         : 187 Kbps
Channel(s)                       : 2 channels
Sampling rate                    : 44.1 KHz
Stream size                      : 101 MiB (15%)
Alignment                        : Aligned on interleaves
Interleave, duration             : 26 ms (0.63 video frame)
Interleave, preload duration     : 88 ms
Writing library                  : LAME3.98.2
